<svg xmlns="http://www.w3.org/2000/svg" xmlns:xlink="http://www.w3.org/1999/xlink" width="442" zoomAndPan="magnify" viewBox="0 0 331.5 48" height="64" preserveAspectRatio="xMidYMid meet" version="1.0"><defs><g/><clipPath id="b5d64842b7"><path d="M 17.09375 0.910156 L 62.644531 0.910156 L 62.644531 46.460938 L 17.09375 46.460938 Z M 17.09375 0.910156 " clip-rule="nonzero"/></clipPath><clipPath id="11bb13aecd"><path d="M 39.871094 0.910156 C 40.617188 0.910156 41.359375 0.949219 42.101562 1.019531 C 42.84375 1.09375 43.582031 1.203125 44.3125 1.347656 C 45.046875 1.496094 45.769531 1.675781 46.480469 1.890625 C 47.195312 2.109375 47.898438 2.359375 48.585938 2.644531 C 49.273438 2.929688 49.949219 3.25 50.605469 3.601562 C 51.265625 3.953125 51.902344 4.335938 52.523438 4.75 C 53.144531 5.164062 53.742188 5.609375 54.320312 6.082031 C 54.894531 6.554688 55.449219 7.054688 55.976562 7.582031 C 56.503906 8.109375 57.003906 8.660156 57.476562 9.238281 C 57.949219 9.816406 58.394531 10.414062 58.808594 11.03125 C 59.222656 11.652344 59.605469 12.292969 59.957031 12.949219 C 60.308594 13.609375 60.625 14.28125 60.910156 14.972656 C 61.199219 15.660156 61.449219 16.363281 61.664062 17.074219 C 61.882812 17.789062 62.0625 18.511719 62.207031 19.242188 C 62.355469 19.976562 62.460938 20.710938 62.535156 21.453125 C 62.609375 22.195312 62.644531 22.941406 62.644531 23.6875 C 62.644531 24.433594 62.609375 25.175781 62.535156 25.917969 C 62.460938 26.660156 62.355469 27.398438 62.207031 28.128906 C 62.0625 28.863281 61.882812 29.585938 61.664062 30.296875 C 61.449219 31.011719 61.199219 31.714844 60.910156 32.402344 C 60.625 33.089844 60.308594 33.765625 59.957031 34.421875 C 59.605469 35.082031 59.222656 35.71875 58.808594 36.339844 C 58.394531 36.960938 57.949219 37.558594 57.476562 38.136719 C 57.003906 38.710938 56.503906 39.265625 55.976562 39.792969 C 55.449219 40.320312 54.894531 40.820312 54.320312 41.292969 C 53.742188 41.765625 53.144531 42.210938 52.523438 42.625 C 51.902344 43.039062 51.265625 43.421875 50.605469 43.773438 C 49.949219 44.125 49.273438 44.441406 48.585938 44.726562 C 47.898438 45.015625 47.195312 45.265625 46.480469 45.480469 C 45.769531 45.699219 45.046875 45.878906 44.3125 46.023438 C 43.582031 46.171875 42.84375 46.277344 42.101562 46.351562 C 41.359375 46.425781 40.617188 46.460938 39.871094 46.460938 C 39.125 46.460938 38.378906 46.425781 37.636719 46.351562 C 36.894531 46.277344 36.160156 46.171875 35.425781 46.023438 C 34.695312 45.878906 33.972656 45.699219 33.257812 45.480469 C 32.546875 45.265625 31.84375 45.015625 31.15625 44.726562 C 30.464844 44.441406 29.792969 44.125 29.132812 43.773438 C 28.476562 43.421875 27.835938 43.039062 27.214844 42.625 C 26.597656 42.210938 26 41.765625 25.421875 41.292969 C 24.84375 40.820312 24.292969 40.320312 23.765625 39.792969 C 23.238281 39.265625 22.738281 38.710938 22.265625 38.136719 C 21.792969 37.558594 21.347656 36.960938 20.933594 36.339844 C 20.519531 35.71875 20.136719 35.082031 19.785156 34.421875 C 19.433594 33.765625 19.113281 33.089844 18.828125 32.402344 C 18.542969 31.714844 18.292969 31.011719 18.074219 30.296875 C 17.859375 29.585938 17.679688 28.863281 17.53125 28.128906 C 17.386719 27.398438 17.277344 26.660156 17.203125 25.917969 C 17.132812 25.175781 17.09375 24.433594 17.09375 23.6875 C 17.09375 22.941406 17.132812 22.195312 17.203125 21.453125 C 17.277344 20.710938 17.386719 19.976562 17.53125 19.242188 C 17.679688 18.511719 17.859375 17.789062 18.074219 17.074219 C 18.292969 16.363281 18.542969 15.660156 18.828125 14.972656 C 19.113281 14.28125 19.433594 13.609375 19.785156 12.949219 C 20.136719 12.292969 20.519531 11.652344 20.933594 11.03125 C 21.347656 10.414062 21.792969 9.816406 22.265625 9.238281 C 22.738281 8.660156 23.238281 8.109375 23.765625 7.582031 C 24.292969 7.054688 24.84375 6.554688 25.421875 6.082031 C 26 5.609375 26.597656 5.164062 27.214844 4.75 C 27.835938 4.335938 28.476562 3.953125 29.132812 3.601562 C 29.792969 3.25 30.464844 2.929688 31.15625 2.644531 C 31.84375 2.359375 32.546875 2.109375 33.257812 1.890625 C 33.972656 1.675781 34.695312 1.496094 35.425781 1.347656 C 36.160156 1.203125 36.894531 1.09375 37.636719 1.019531 C 38.378906 0.949219 39.125 0.910156 39.871094 0.910156 Z M 39.871094 0.910156 " clip-rule="nonzero"/></clipPath><linearGradient x1="-0.000000117318" gradientTransform="matrix(0.948979, 0, 0, 0.948979, 17.094639, 0.911018)" y1="24" x2="48" gradientUnits="userSpaceOnUse" y2="24" id="394c47ac4a"><stop stop-opacity="1" stop-color="rgb(96.078491%, 76.469421%, 68.629456%)" offset="0"/><stop stop-opacity="1" stop-color="rgb(96.04187%, 76.280212%, 68.759155%)" offset="0.0078125"/><stop stop-opacity="1" stop-color="rgb(95.970154%, 75.900269%, 69.020081%)" offset="0.015625"/><stop stop-opacity="1" stop-color="rgb(95.898438%, 75.521851%, 69.281006%)" offset="0.0234375"/><stop stop-opacity="1" stop-color="rgb(95.826721%, 75.143433%, 69.543457%)" offset="0.03125"/><stop stop-opacity="1" stop-color="rgb(95.755005%, 74.765015%, 69.804382%)" offset="0.0390625"/><stop stop-opacity="1" stop-color="rgb(95.683289%, 74.385071%, 70.065308%)" offset="0.046875"/><stop stop-opacity="1" stop-color="rgb(95.611572%, 74.006653%, 70.326233%)" offset="0.0546875"/><stop stop-opacity="1" stop-color="rgb(95.53833%, 73.628235%, 70.587158%)" offset="0.0625"/><stop stop-opacity="1" stop-color="rgb(95.466614%, 73.249817%, 70.848083%)" offset="0.0703125"/><stop stop-opacity="1" stop-color="rgb(95.394897%, 72.869873%, 71.110535%)" offset="0.078125"/><stop stop-opacity="1" stop-color="rgb(95.323181%, 72.491455%, 71.37146%)" offset="0.0859375"/><stop stop-opacity="1" stop-color="rgb(95.251465%, 72.113037%, 71.632385%)" offset="0.09375"/><stop stop-opacity="1" stop-color="rgb(95.179749%, 71.734619%, 71.893311%)" offset="0.101562"/><stop stop-opacity="1" stop-color="rgb(95.106506%, 71.354675%, 72.154236%)" offset="0.109375"/><stop stop-opacity="1" stop-color="rgb(95.03479%, 70.976257%, 72.415161%)" offset="0.117187"/><stop stop-opacity="1" stop-color="rgb(94.963074%, 70.597839%, 72.677612%)" offset="0.125"/><stop stop-opacity="1" stop-color="rgb(94.891357%, 70.219421%, 72.938538%)" offset="0.132812"/><stop stop-opacity="1" stop-color="rgb(94.819641%, 69.839478%, 73.199463%)" offset="0.140625"/><stop stop-opacity="1" stop-color="rgb(94.747925%, 69.46106%, 73.460388%)" offset="0.148438"/><stop stop-opacity="1" stop-color="rgb(94.674683%, 69.082642%, 73.721313%)" offset="0.15625"/><stop stop-opacity="1" stop-color="rgb(94.602966%, 68.704224%, 73.983765%)" offset="0.164063"/><stop stop-opacity="1" stop-color="rgb(94.53125%, 68.32428%, 74.24469%)" offset="0.171875"/><stop stop-opacity="1" stop-color="rgb(94.459534%, 67.945862%, 74.505615%)" offset="0.179688"/><stop stop-opacity="1" stop-color="rgb(94.387817%, 67.567444%, 74.766541%)" offset="0.1875"/><stop stop-opacity="1" stop-color="rgb(94.316101%, 67.189026%, 75.027466%)" offset="0.195312"/><stop stop-opacity="1" stop-color="rgb(94.242859%, 66.809082%, 75.288391%)" offset="0.203125"/><stop stop-opacity="1" stop-color="rgb(94.171143%, 66.430664%, 75.550842%)" offset="0.210937"/><stop stop-opacity="1" stop-color="rgb(94.099426%, 66.052246%, 75.811768%)" offset="0.21875"/><stop stop-opacity="1" stop-color="rgb(94.02771%, 65.673828%, 76.072693%)" offset="0.226562"/><stop stop-opacity="1" stop-color="rgb(93.955994%, 65.293884%, 76.333618%)" offset="0.234375"/><stop stop-opacity="1" stop-color="rgb(93.884277%, 64.915466%, 76.594543%)" offset="0.242188"/><stop stop-opacity="1" stop-color="rgb(93.812561%, 64.537048%, 76.855469%)" offset="0.25"/><stop stop-opacity="1" stop-color="rgb(93.739319%, 64.15863%, 77.11792%)" offset="0.257812"/><stop stop-opacity="1" stop-color="rgb(93.667603%, 63.778687%, 77.378845%)" offset="0.265625"/><stop stop-opacity="1" stop-color="rgb(93.595886%, 63.400269%, 77.639771%)" offset="0.273438"/><stop stop-opacity="1" stop-color="rgb(93.52417%, 63.021851%, 77.900696%)" offset="0.28125"/><stop stop-opacity="1" stop-color="rgb(93.452454%, 62.643433%, 78.161621%)" offset="0.289062"/><stop stop-opacity="1" stop-color="rgb(93.380737%, 62.263489%, 78.424072%)" offset="0.296875"/><stop stop-opacity="1" stop-color="rgb(93.307495%, 61.885071%, 78.684998%)" offset="0.304687"/><stop stop-opacity="1" stop-color="rgb(93.235779%, 61.506653%, 78.945923%)" offset="0.3125"/><stop stop-opacity="1" stop-color="rgb(93.164062%, 61.128235%, 79.206848%)" offset="0.320312"/><stop stop-opacity="1" stop-color="rgb(93.092346%, 60.748291%, 79.467773%)" offset="0.328125"/><stop stop-opacity="1" stop-color="rgb(93.02063%, 60.369873%, 79.728699%)" offset="0.335937"/><stop stop-opacity="1" stop-color="rgb(92.948914%, 59.991455%, 79.99115%)" offset="0.34375"/><stop stop-opacity="1" stop-color="rgb(92.875671%, 59.613037%, 80.252075%)" offset="0.351562"/><stop stop-opacity="1" stop-color="rgb(92.803955%, 59.233093%, 80.513%)" offset="0.359375"/><stop stop-opacity="1" stop-color="rgb(92.732239%, 58.854675%, 80.773926%)" offset="0.367187"/><stop stop-opacity="1" stop-color="rgb(92.660522%, 58.476257%, 81.034851%)" offset="0.375"/><stop stop-opacity="1" stop-color="rgb(92.588806%, 58.097839%, 81.295776%)" offset="0.382812"/><stop stop-opacity="1" stop-color="rgb(92.51709%, 57.717896%, 81.558228%)" offset="0.390625"/><stop stop-opacity="1" stop-color="rgb(92.443848%, 57.339478%, 81.819153%)" offset="0.398437"/><stop stop-opacity="1" stop-color="rgb(92.372131%, 56.96106%, 82.080078%)" offset="0.40625"/><stop stop-opacity="1" stop-color="rgb(92.300415%, 56.582642%, 82.341003%)" offset="0.414062"/><stop stop-opacity="1" stop-color="rgb(92.228699%, 56.202698%, 82.601929%)" offset="0.421875"/><stop stop-opacity="1" stop-color="rgb(92.156982%, 55.82428%, 82.86438%)" offset="0.429687"/><stop stop-opacity="1" stop-color="rgb(92.085266%, 55.445862%, 83.125305%)" offset="0.4375"/><stop stop-opacity="1" stop-color="rgb(92.012024%, 55.067444%, 83.38623%)" offset="0.445312"/><stop stop-opacity="1" stop-color="rgb(91.940308%, 54.6875%, 83.647156%)" offset="0.453125"/><stop stop-opacity="1" stop-color="rgb(91.868591%, 54.309082%, 83.908081%)" offset="0.460937"/><stop stop-opacity="1" stop-color="rgb(91.796875%, 53.930664%, 84.169006%)" offset="0.46875"/><stop stop-opacity="1" stop-color="rgb(91.394043%, 53.639221%, 84.309387%)" offset="0.472656"/><stop stop-opacity="1" stop-color="rgb(91.027832%, 53.538513%, 84.320068%)" offset="0.476562"/><stop stop-opacity="1" stop-color="rgb(90.649414%, 53.440857%, 84.326172%)" offset="0.480469"/><stop stop-opacity="1" stop-color="rgb(90.272522%, 53.343201%, 84.332275%)" offset="0.484375"/><stop stop-opacity="1" stop-color="rgb(89.894104%, 53.244019%, 84.338379%)" offset="0.488281"/><stop stop-opacity="1" stop-color="rgb(89.515686%, 53.146362%, 84.344482%)" offset="0.492187"/><stop stop-opacity="1" stop-color="rgb(89.137268%, 53.048706%, 84.34906%)" offset="0.496094"/><stop stop-opacity="1" stop-color="rgb(88.760376%, 52.95105%, 84.355164%)" offset="0.5"/><stop stop-opacity="1" stop-color="rgb(88.381958%, 52.851868%, 84.361267%)" offset="0.503906"/><stop stop-opacity="1" stop-color="rgb(88.005066%, 52.754211%, 84.367371%)" offset="0.507813"/><stop stop-opacity="1" stop-color="rgb(87.626648%, 52.655029%, 84.371948%)" offset="0.511719"/><stop stop-opacity="1" stop-color="rgb(87.24823%, 52.557373%, 84.378052%)" offset="0.515625"/><stop stop-opacity="1" stop-color="rgb(86.869812%, 52.459717%, 84.384155%)" offset="0.519531"/><stop stop-opacity="1" stop-color="rgb(86.49292%, 52.362061%, 84.390259%)" offset="0.523438"/><stop stop-opacity="1" stop-color="rgb(86.114502%, 52.262878%, 84.396362%)" offset="0.527344"/><stop stop-opacity="1" stop-color="rgb(85.73761%, 52.165222%, 84.402466%)" offset="0.53125"/><stop stop-opacity="1" stop-color="rgb(85.359192%, 52.06604%, 84.407043%)" offset="0.535156"/><stop stop-opacity="1" stop-color="rgb(84.980774%, 51.968384%, 84.413147%)" offset="0.539062"/><stop stop-opacity="1" stop-color="rgb(84.602356%, 51.870728%, 84.41925%)" offset="0.542969"/><stop stop-opacity="1" stop-color="rgb(84.225464%, 51.773071%, 84.425354%)" offset="0.546875"/><stop stop-opacity="1" stop-color="rgb(83.847046%, 51.673889%, 84.429932%)" offset="0.550781"/><stop stop-opacity="1" stop-color="rgb(83.470154%, 51.576233%, 84.436035%)" offset="0.554688"/><stop stop-opacity="1" stop-color="rgb(83.091736%, 51.478577%, 84.442139%)" offset="0.558594"/><stop stop-opacity="1" stop-color="rgb(82.713318%, 51.38092%, 84.448242%)" offset="0.5625"/><stop stop-opacity="1" stop-color="rgb(82.3349%, 51.281738%, 84.454346%)" offset="0.566406"/><stop stop-opacity="1" stop-color="rgb(81.958008%, 51.184082%, 84.460449%)" offset="0.570312"/><stop stop-opacity="1" stop-color="rgb(81.57959%, 51.0849%, 84.465027%)" offset="0.574219"/><stop stop-opacity="1" stop-color="rgb(81.202698%, 50.987244%, 84.47113%)" offset="0.578125"/><stop stop-opacity="1" stop-color="rgb(80.82428%, 50.889587%, 84.477234%)" offset="0.582031"/><stop stop-opacity="1" stop-color="rgb(80.445862%, 50.791931%, 84.483337%)" offset="0.585938"/><stop stop-opacity="1" stop-color="rgb(80.067444%, 50.692749%, 84.489441%)" offset="0.589844"/><stop stop-opacity="1" stop-color="rgb(79.690552%, 50.595093%, 84.495544%)" offset="0.59375"/><stop stop-opacity="1" stop-color="rgb(79.312134%, 50.495911%, 84.500122%)" offset="0.597656"/><stop stop-opacity="1" stop-color="rgb(78.935242%, 50.398254%, 84.506226%)" offset="0.601562"/><stop stop-opacity="1" stop-color="rgb(78.556824%, 50.300598%, 84.512329%)" offset="0.605469"/><stop stop-opacity="1" stop-color="rgb(78.178406%, 50.202942%, 84.518433%)" offset="0.609375"/><stop stop-opacity="1" stop-color="rgb(77.799988%, 50.10376%, 84.52301%)" offset="0.613281"/><stop stop-opacity="1" stop-color="rgb(77.423096%, 50.006104%, 84.529114%)" offset="0.617187"/><stop stop-opacity="1" stop-color="rgb(77.044678%, 49.908447%, 84.535217%)" offset="0.621094"/><stop stop-opacity="1" stop-color="rgb(76.667786%, 49.810791%, 84.541321%)" offset="0.625"/><stop stop-opacity="1" stop-color="rgb(76.289368%, 49.711609%, 84.547424%)" offset="0.628906"/><stop stop-opacity="1" stop-color="rgb(75.91095%, 49.613953%, 84.553528%)" offset="0.632812"/><stop stop-opacity="1" stop-color="rgb(75.532532%, 49.514771%, 84.558105%)" offset="0.636719"/><stop stop-opacity="1" stop-color="rgb(75.15564%, 49.417114%, 84.564209%)" offset="0.640625"/><stop stop-opacity="1" stop-color="rgb(74.777222%, 49.319458%, 84.570312%)" offset="0.644531"/><stop stop-opacity="1" stop-color="rgb(74.40033%, 49.221802%, 84.576416%)" offset="0.648437"/><stop stop-opacity="1" stop-color="rgb(74.021912%, 49.12262%, 84.580994%)" offset="0.652344"/><stop stop-opacity="1" stop-color="rgb(73.64502%, 49.024963%, 84.587097%)" offset="0.65625"/><stop stop-opacity="1" stop-color="rgb(73.266602%, 48.925781%, 84.593201%)" offset="0.660156"/><stop stop-opacity="1" stop-color="rgb(72.888184%, 48.828125%, 84.599304%)" offset="0.664062"/><stop stop-opacity="1" stop-color="rgb(72.509766%, 48.730469%, 84.605408%)" offset="0.667969"/><stop stop-opacity="1" stop-color="rgb(72.132874%, 48.632812%, 84.611511%)" offset="0.671875"/><stop stop-opacity="1" stop-color="rgb(71.754456%, 48.53363%, 84.616089%)" offset="0.675781"/><stop stop-opacity="1" stop-color="rgb(71.377563%, 48.435974%, 84.622192%)" offset="0.679688"/><stop stop-opacity="1" stop-color="rgb(70.999146%, 48.338318%, 84.628296%)" offset="0.683594"/><stop stop-opacity="1" stop-color="rgb(70.620728%, 48.240662%, 84.634399%)" offset="0.6875"/><stop stop-opacity="1" stop-color="rgb(70.24231%, 48.141479%, 84.640503%)" offset="0.691406"/><stop stop-opacity="1" stop-color="rgb(69.865417%, 48.043823%, 84.646606%)" offset="0.695313"/><stop stop-opacity="1" stop-color="rgb(69.487%, 47.944641%, 84.651184%)" offset="0.699219"/><stop stop-opacity="1" stop-color="rgb(69.110107%, 47.846985%, 84.657288%)" offset="0.703125"/><stop stop-opacity="1" stop-color="rgb(68.731689%, 47.749329%, 84.663391%)" offset="0.707031"/><stop stop-opacity="1" stop-color="rgb(68.353271%, 47.651672%, 84.669495%)" offset="0.710938"/><stop stop-opacity="1" stop-color="rgb(67.974854%, 47.55249%, 84.674072%)" offset="0.714844"/><stop stop-opacity="1" stop-color="rgb(67.597961%, 47.454834%, 84.680176%)" offset="0.71875"/><stop stop-opacity="1" stop-color="rgb(67.219543%, 47.355652%, 84.686279%)" offset="0.722656"/><stop stop-opacity="1" stop-color="rgb(66.842651%, 47.257996%, 84.692383%)" offset="0.726562"/><stop stop-opacity="1" stop-color="rgb(66.464233%, 47.160339%, 84.698486%)" offset="0.730469"/><stop stop-opacity="1" stop-color="rgb(66.085815%, 47.062683%, 84.70459%)" offset="0.734375"/><stop stop-opacity="1" stop-color="rgb(65.707397%, 46.963501%, 84.709167%)" offset="0.738281"/><stop stop-opacity="1" stop-color="rgb(65.330505%, 46.865845%, 84.715271%)" offset="0.742188"/><stop stop-opacity="1" stop-color="rgb(64.952087%, 46.768188%, 84.721375%)" offset="0.746094"/><stop stop-opacity="1" stop-color="rgb(64.575195%, 46.670532%, 84.727478%)" offset="0.75"/><stop stop-opacity="1" stop-color="rgb(64.196777%, 46.57135%, 84.732056%)" offset="0.753906"/><stop stop-opacity="1" stop-color="rgb(63.818359%, 46.473694%, 84.738159%)" offset="0.757812"/><stop stop-opacity="1" stop-color="rgb(63.439941%, 46.374512%, 84.744263%)" offset="0.761719"/><stop stop-opacity="1" stop-color="rgb(63.063049%, 46.276855%, 84.750366%)" offset="0.765625"/><stop stop-opacity="1" stop-color="rgb(62.684631%, 46.179199%, 84.75647%)" offset="0.769531"/><stop stop-opacity="1" stop-color="rgb(62.307739%, 46.081543%, 84.762573%)" offset="0.773438"/><stop stop-opacity="1" stop-color="rgb(61.929321%, 45.982361%, 84.767151%)" offset="0.777344"/><stop stop-opacity="1" stop-color="rgb(61.550903%, 45.884705%, 84.773254%)" offset="0.78125"/><stop stop-opacity="1" stop-color="rgb(61.172485%, 45.785522%, 84.779358%)" offset="0.785156"/><stop stop-opacity="1" stop-color="rgb(60.795593%, 45.687866%, 84.785461%)" offset="0.789062"/><stop stop-opacity="1" stop-color="rgb(60.417175%, 45.59021%, 84.791565%)" offset="0.792969"/><stop stop-opacity="1" stop-color="rgb(60.040283%, 45.492554%, 84.797668%)" offset="0.796875"/><stop stop-opacity="1" stop-color="rgb(59.661865%, 45.393372%, 84.802246%)" offset="0.800781"/><stop stop-opacity="1" stop-color="rgb(59.283447%, 45.295715%, 84.80835%)" offset="0.804687"/><stop stop-opacity="1" stop-color="rgb(58.905029%, 45.198059%, 84.814453%)" offset="0.808594"/><stop stop-opacity="1" stop-color="rgb(58.528137%, 45.100403%, 84.820557%)" offset="0.8125"/><stop stop-opacity="1" stop-color="rgb(58.149719%, 45.001221%, 84.825134%)" offset="0.816406"/><stop stop-opacity="1" stop-color="rgb(57.772827%, 44.903564%, 84.831238%)" offset="0.820312"/><stop stop-opacity="1" stop-color="rgb(57.394409%, 44.804382%, 84.837341%)" offset="0.824219"/><stop stop-opacity="1" stop-color="rgb(57.017517%, 44.706726%, 84.843445%)" offset="0.828125"/><stop stop-opacity="1" stop-color="rgb(56.639099%, 44.60907%, 84.849548%)" offset="0.832031"/><stop stop-opacity="1" stop-color="rgb(56.260681%, 44.511414%, 84.855652%)" offset="0.835938"/><stop stop-opacity="1" stop-color="rgb(55.882263%, 44.412231%, 84.860229%)" offset="0.839844"/><stop stop-opacity="1" stop-color="rgb(55.505371%, 44.314575%, 84.866333%)" offset="0.84375"/><stop stop-opacity="1" stop-color="rgb(55.126953%, 44.215393%, 84.872437%)" offset="0.847656"/><stop stop-opacity="1" stop-color="rgb(54.750061%, 44.117737%, 84.87854%)" offset="0.851563"/><stop stop-opacity="1" stop-color="rgb(54.371643%, 44.020081%, 84.884644%)" offset="0.855469"/><stop stop-opacity="1" stop-color="rgb(53.993225%, 43.922424%, 84.890747%)" offset="0.859375"/><stop stop-opacity="1" stop-color="rgb(53.614807%, 43.823242%, 84.895325%)" offset="0.863281"/><stop stop-opacity="1" stop-color="rgb(53.237915%, 43.725586%, 84.901428%)" offset="0.867188"/><stop stop-opacity="1" stop-color="rgb(52.859497%, 43.62793%, 84.907532%)" offset="0.871094"/><stop stop-opacity="1" stop-color="rgb(52.482605%, 43.530273%, 84.913635%)" offset="0.875"/><stop stop-opacity="1" stop-color="rgb(52.104187%, 43.431091%, 84.918213%)" offset="0.878906"/><stop stop-opacity="1" stop-color="rgb(51.725769%, 43.333435%, 84.924316%)" offset="0.882813"/><stop stop-opacity="1" stop-color="rgb(51.347351%, 43.234253%, 84.93042%)" offset="0.886719"/><stop stop-opacity="1" stop-color="rgb(50.970459%, 43.136597%, 84.936523%)" offset="0.890625"/><stop stop-opacity="1" stop-color="rgb(50.592041%, 43.03894%, 84.942627%)" offset="0.894531"/><stop stop-opacity="1" stop-color="rgb(50.215149%, 42.941284%, 84.94873%)" offset="0.898438"/><stop stop-opacity="1" stop-color="rgb(49.836731%, 42.842102%, 84.953308%)" offset="0.902344"/><stop stop-opacity="1" stop-color="rgb(49.458313%, 42.744446%, 84.959412%)" offset="0.90625"/><stop stop-opacity="1" stop-color="rgb(49.079895%, 42.645264%, 84.965515%)" offset="0.910156"/><stop stop-opacity="1" stop-color="rgb(48.703003%, 42.547607%, 84.971619%)" offset="0.914062"/><stop stop-opacity="1" stop-color="rgb(48.324585%, 42.449951%, 84.976196%)" offset="0.917969"/><stop stop-opacity="1" stop-color="rgb(47.947693%, 42.352295%, 84.9823%)" offset="0.921875"/><stop stop-opacity="1" stop-color="rgb(47.569275%, 42.253113%, 84.988403%)" offset="0.925781"/><stop stop-opacity="1" stop-color="rgb(47.190857%, 42.155457%, 84.994507%)" offset="0.929688"/><stop stop-opacity="1" stop-color="rgb(46.812439%, 42.0578%, 85.00061%)" offset="0.933594"/><stop stop-opacity="1" stop-color="rgb(46.435547%, 41.960144%, 85.006714%)" offset="0.9375"/><stop stop-opacity="1" stop-color="rgb(46.057129%, 41.860962%, 85.011292%)" offset="0.941406"/><stop stop-opacity="1" stop-color="rgb(45.680237%, 41.763306%, 85.017395%)" offset="0.945312"/><stop stop-opacity="1" stop-color="rgb(45.301819%, 41.664124%, 85.023499%)" offset="0.949219"/><stop stop-opacity="1" stop-color="rgb(44.923401%, 41.566467%, 85.029602%)" offset="0.953125"/><stop stop-opacity="1" stop-color="rgb(44.544983%, 41.468811%, 85.035706%)" offset="0.957031"/><stop stop-opacity="1" stop-color="rgb(44.168091%, 41.371155%, 85.041809%)" offset="0.960938"/><stop stop-opacity="1" stop-color="rgb(43.789673%, 41.271973%, 85.046387%)" offset="0.964844"/><stop stop-opacity="1" stop-color="rgb(43.412781%, 41.174316%, 85.05249%)" offset="0.96875"/><stop stop-opacity="1" stop-color="rgb(43.034363%, 41.075134%, 85.058594%)" offset="0.972656"/><stop stop-opacity="1" stop-color="rgb(42.655945%, 40.977478%, 85.064697%)" offset="0.976562"/><stop stop-opacity="1" stop-color="rgb(42.277527%, 40.879822%, 85.069275%)" offset="0.980469"/><stop stop-opacity="1" stop-color="rgb(41.900635%, 40.782166%, 85.075378%)" offset="0.984375"/><stop stop-opacity="1" stop-color="rgb(41.522217%, 40.682983%, 85.081482%)" offset="0.988281"/><stop stop-opacity="1" stop-color="rgb(41.145325%, 40.585327%, 85.087585%)" offset="0.992187"/><stop stop-opacity="1" stop-color="rgb(40.766907%, 40.486145%, 85.093689%)" offset="0.996094"/><stop stop-opacity="1" stop-color="rgb(40.388489%, 40.388489%, 85.099792%)" offset="1"/></linearGradient><clipPath id="946c937cfa"><path d="M 68 3 L 324 3 L 324 47.019531 L 68 47.019531 Z M 68 3 " clip-rule="nonzero"/></clipPath><clipPath id="85b949c16d"><path d="M 239 8 L 255.816406 8 L 255.816406 40 L 239 40 Z M 239 8 " clip-rule="nonzero"/></clipPath><clipPath id="8d1d2c2d7f"><rect x="0" width="256" y="0" height="45"/></clipPath></defs><g clip-path="url(#b5d64842b7)"><g clip-path="url(#11bb13aecd)"><path fill="url(#394c47ac4a)" d="M 17.09375 0.910156 L 17.09375 46.460938 L 62.644531 46.460938 L 62.644531 0.910156 Z M 17.09375 0.910156 " fill-rule="nonzero"/></g></g><g clip-path="url(#946c937cfa)"><g transform="matrix(1, 0, 0, 1, 68, 3)"><g clip-path="url(#8d1d2c2d7f)"><g fill="#000000" fill-opacity="1"><g transform="translate(1.111956, 38.47148)"><g><path d="M 15.515625 -35.8125 C 17.421875 -35.8125 19.285156 -35.535156 21.109375 -34.984375 C 22.929688 -34.429688 24.28125 -33.882812 25.15625 -33.34375 L 26.4375 -32.5 L 23.203125 -26.09375 C 22.941406 -26.269531 22.582031 -26.488281 22.125 -26.75 C 21.675781 -27.019531 20.828125 -27.382812 19.578125 -27.84375 C 18.328125 -28.300781 17.160156 -28.53125 16.078125 -28.53125 C 14.742188 -28.53125 13.710938 -28.242188 12.984375 -27.671875 C 12.253906 -27.109375 11.890625 -26.34375 11.890625 -25.375 C 11.890625 -24.882812 12.0625 -24.429688 12.40625 -24.015625 C 12.75 -23.609375 13.332031 -23.171875 14.15625 -22.703125 C 14.976562 -22.234375 15.703125 -21.859375 16.328125 -21.578125 C 16.953125 -21.296875 17.921875 -20.867188 19.234375 -20.296875 C 21.503906 -19.328125 23.441406 -18.007812 25.046875 -16.34375 C 26.648438 -14.6875 27.453125 -12.804688 27.453125 -10.703125 C 27.453125 -8.679688 27.085938 -6.914062 26.359375 -5.40625 C 25.640625 -3.90625 24.644531 -2.726562 23.375 -1.875 C 22.113281 -1.019531 20.71875 -0.390625 19.1875 0.015625 C 17.65625 0.429688 15.992188 0.640625 14.203125 0.640625 C 12.660156 0.640625 11.148438 0.484375 9.671875 0.171875 C 8.203125 -0.140625 6.96875 -0.53125 5.96875 -1 C 4.976562 -1.46875 4.082031 -1.925781 3.28125 -2.375 C 2.488281 -2.832031 1.90625 -3.222656 1.53125 -3.546875 L 0.984375 -4.015625 L 4.984375 -10.75 C 5.328125 -10.457031 5.796875 -10.09375 6.390625 -9.65625 C 6.992188 -9.21875 8.054688 -8.628906 9.578125 -7.890625 C 11.097656 -7.148438 12.441406 -6.78125 13.609375 -6.78125 C 16.984375 -6.78125 18.671875 -7.929688 18.671875 -10.234375 C 18.671875 -10.710938 18.550781 -11.15625 18.3125 -11.5625 C 18.070312 -11.976562 17.644531 -12.394531 17.03125 -12.8125 C 16.425781 -13.226562 15.890625 -13.554688 15.421875 -13.796875 C 14.953125 -14.035156 14.179688 -14.40625 13.109375 -14.90625 C 12.046875 -15.40625 11.257812 -15.78125 10.75 -16.03125 C 8.613281 -17.082031 6.960938 -18.394531 5.796875 -19.96875 C 4.628906 -21.550781 4.046875 -23.253906 4.046875 -25.078125 C 4.046875 -28.234375 5.210938 -30.8125 7.546875 -32.8125 C 9.878906 -34.8125 12.535156 -35.8125 15.515625 -35.8125 Z M 15.515625 -35.8125 "/></g></g></g><g fill="#000000" fill-opacity="1"><g transform="translate(29.761302, 38.47148)"><g><path d="M 2.5625 0 L 2.5625 -21.875 L 10.109375 -21.875 L 10.109375 -19.578125 L 10.1875 -19.578125 C 12.15625 -21.535156 14.242188 -22.515625 16.453125 -22.515625 C 18.046875 -22.515625 19.539062 -22.1875 20.9375 -21.53125 C 22.332031 -20.875 23.382812 -19.863281 24.09375 -18.5 C 26.3125 -21.175781 28.726562 -22.515625 31.34375 -22.515625 C 33.675781 -22.515625 35.679688 -21.859375 37.359375 -20.546875 C 39.035156 -19.242188 39.875 -17.195312 39.875 -14.40625 L 39.875 0 L 32.328125 0 L 32.328125 -12.359375 C 32.328125 -13.523438 32.003906 -14.5 31.359375 -15.28125 C 30.722656 -16.0625 29.765625 -16.453125 28.484375 -16.453125 C 27.378906 -16.453125 26.535156 -16.117188 25.953125 -15.453125 C 25.367188 -14.785156 25.046875 -13.984375 24.984375 -13.046875 L 24.984375 0 L 17.4375 0 L 17.4375 -12.359375 C 17.4375 -13.523438 17.113281 -14.5 16.46875 -15.28125 C 15.832031 -16.0625 14.878906 -16.453125 13.609375 -16.453125 C 12.441406 -16.453125 11.566406 -16.085938 10.984375 -15.359375 C 10.398438 -14.640625 10.109375 -13.785156 10.109375 -12.796875 L 10.109375 0 Z M 2.5625 0 "/></g></g></g><g fill="#000000" fill-opacity="1"><g transform="translate(71.754764, 38.47148)"><g><path d="M 4.046875 -2.703125 C 2.003906 -4.941406 0.984375 -7.679688 0.984375 -10.921875 C 0.984375 -14.160156 2.003906 -16.898438 4.046875 -19.140625 C 6.097656 -21.390625 8.703125 -22.515625 11.859375 -22.515625 C 14.753906 -22.515625 17.140625 -21.601562 19.015625 -19.78125 L 19.015625 -21.875 L 26.5625 -21.875 L 26.5625 0 L 19.109375 0 L 19.109375 -2.46875 L 19.015625 -2.46875 C 17.140625 -0.394531 14.753906 0.640625 11.859375 0.640625 C 8.703125 0.640625 6.097656 -0.472656 4.046875 -2.703125 Z M 10.46875 -14.625 C 9.488281 -13.65625 9 -12.414062 9 -10.90625 C 9 -9.40625 9.46875 -8.175781 10.40625 -7.21875 C 11.34375 -6.269531 12.578125 -5.796875 14.109375 -5.796875 C 15.585938 -5.796875 16.800781 -6.28125 17.75 -7.25 C 18.707031 -8.21875 19.1875 -9.441406 19.1875 -10.921875 C 19.1875 -12.421875 18.695312 -13.65625 17.71875 -14.625 C 16.738281 -15.59375 15.535156 -16.078125 14.109375 -16.078125 C 12.660156 -16.078125 11.445312 -15.59375 10.46875 -14.625 Z M 10.46875 -14.625 "/></g></g></g><g fill="#000000" fill-opacity="1"><g transform="translate(100.873069, 38.47148)"><g><path d="M 2.5625 0 L 2.5625 -21.875 L 10.109375 -21.875 L 10.109375 -18.71875 L 10.1875 -18.71875 C 10.25 -18.832031 10.34375 -18.972656 10.46875 -19.140625 C 10.59375 -19.316406 10.867188 -19.617188 11.296875 -20.046875 C 11.722656 -20.472656 12.175781 -20.851562 12.65625 -21.1875 C 13.144531 -21.53125 13.769531 -21.835938 14.53125 -22.109375 C 15.300781 -22.378906 16.085938 -22.515625 16.890625 -22.515625 C 17.710938 -22.515625 18.519531 -22.398438 19.3125 -22.171875 C 20.113281 -21.941406 20.695312 -21.710938 21.0625 -21.484375 L 21.65625 -21.15625 L 18.5 -14.75 C 17.5625 -15.550781 16.253906 -15.953125 14.578125 -15.953125 C 13.671875 -15.953125 12.890625 -15.75 12.234375 -15.34375 C 11.578125 -14.945312 11.113281 -14.460938 10.84375 -13.890625 C 10.582031 -13.328125 10.394531 -12.847656 10.28125 -12.453125 C 10.164062 -12.054688 10.109375 -11.742188 10.109375 -11.515625 L 10.109375 0 Z M 2.5625 0 "/></g></g></g><g fill="#000000" fill-opacity="1"><g transform="translate(122.104285, 38.47148)"><g><path d="M 3.84375 -21.875 L 3.84375 -30.015625 L 11.390625 -30.015625 L 11.390625 -21.875 L 15.984375 -21.875 L 15.984375 -16.125 L 11.390625 -16.125 L 11.390625 -9.171875 C 11.390625 -7.148438 11.957031 -6.140625 13.09375 -6.140625 C 13.375 -6.140625 13.671875 -6.195312 13.984375 -6.3125 C 14.296875 -6.425781 14.539062 -6.539062 14.71875 -6.65625 L 14.96875 -6.828125 L 16.84375 -0.71875 C 15.21875 0.1875 13.367188 0.640625 11.296875 0.640625 C 9.878906 0.640625 8.65625 0.390625 7.625 -0.109375 C 6.601562 -0.609375 5.828125 -1.273438 5.296875 -2.109375 C 4.773438 -2.953125 4.398438 -3.832031 4.171875 -4.75 C 3.953125 -5.675781 3.84375 -6.664062 3.84375 -7.71875 L 3.84375 -16.125 L 0.6875 -16.125 L 0.6875 -21.875 Z M 3.84375 -21.875 "/></g></g></g><g fill="#000000" fill-opacity="1"><g transform="translate(138.944303, 38.47148)"><g/></g></g><g fill="#000000" fill-opacity="1"><g transform="translate(149.218807, 38.47148)"><g><path d="M 21.28125 -7.25 C 22.5 -7.25 23.679688 -7.429688 24.828125 -7.796875 C 25.984375 -8.171875 26.832031 -8.53125 27.375 -8.875 L 28.1875 -9.421875 L 31.59375 -2.59375 C 31.476562 -2.507812 31.320312 -2.394531 31.125 -2.25 C 30.925781 -2.113281 30.460938 -1.851562 29.734375 -1.46875 C 29.015625 -1.082031 28.242188 -0.75 27.421875 -0.46875 C 26.597656 -0.1875 25.515625 0.0664062 24.171875 0.296875 C 22.835938 0.523438 21.460938 0.640625 20.046875 0.640625 C 16.773438 0.640625 13.675781 -0.160156 10.75 -1.765625 C 7.820312 -3.367188 5.460938 -5.578125 3.671875 -8.390625 C 1.878906 -11.210938 0.984375 -14.257812 0.984375 -17.53125 C 0.984375 -20 1.507812 -22.367188 2.5625 -24.640625 C 3.613281 -26.921875 5.007812 -28.867188 6.75 -30.484375 C 8.5 -32.109375 10.539062 -33.398438 12.875 -34.359375 C 15.207031 -35.328125 17.597656 -35.8125 20.046875 -35.8125 C 22.316406 -35.8125 24.410156 -35.539062 26.328125 -35 C 28.242188 -34.46875 29.601562 -33.929688 30.40625 -33.390625 L 31.59375 -32.578125 L 28.1875 -25.75 C 27.988281 -25.925781 27.6875 -26.132812 27.28125 -26.375 C 26.882812 -26.613281 26.085938 -26.929688 24.890625 -27.328125 C 23.703125 -27.722656 22.5 -27.921875 21.28125 -27.921875 C 19.34375 -27.921875 17.601562 -27.609375 16.0625 -26.984375 C 14.53125 -26.359375 13.316406 -25.535156 12.421875 -24.515625 C 11.535156 -23.492188 10.851562 -22.390625 10.375 -21.203125 C 9.90625 -20.023438 9.671875 -18.828125 9.671875 -17.609375 C 9.671875 -14.941406 10.671875 -12.546875 12.671875 -10.421875 C 14.679688 -8.304688 17.550781 -7.25 21.28125 -7.25 Z M 21.28125 -7.25 "/></g></g></g><g fill="#000000" fill-opacity="1"><g transform="translate(181.321418, 38.47148)"><g><path d="M 2.5625 0 L 2.5625 -36.671875 L 10.109375 -36.671875 L 10.109375 -19.578125 L 10.1875 -19.578125 C 12.15625 -21.535156 14.242188 -22.515625 16.453125 -22.515625 C 17.535156 -22.515625 18.609375 -22.367188 19.671875 -22.078125 C 20.742188 -21.796875 21.769531 -21.359375 22.75 -20.765625 C 23.726562 -20.171875 24.519531 -19.328125 25.125 -18.234375 C 25.738281 -17.140625 26.046875 -15.863281 26.046875 -14.40625 L 26.046875 0 L 18.5 0 L 18.5 -12.359375 C 18.5 -13.503906 18.132812 -14.5 17.40625 -15.34375 C 16.6875 -16.195312 15.742188 -16.625 14.578125 -16.625 C 13.441406 -16.625 12.410156 -16.179688 11.484375 -15.296875 C 10.566406 -14.421875 10.109375 -13.441406 10.109375 -12.359375 L 10.109375 0 Z M 2.5625 0 "/></g></g></g><g fill="#000000" fill-opacity="1"><g transform="translate(209.501794, 38.47148)"><g><path d="M 4.046875 -2.703125 C 2.003906 -4.941406 0.984375 -7.679688 0.984375 -10.921875 C 0.984375 -14.160156 2.003906 -16.898438 4.046875 -19.140625 C 6.097656 -21.390625 8.703125 -22.515625 11.859375 -22.515625 C 14.753906 -22.515625 17.140625 -21.601562 19.015625 -19.78125 L 19.015625 -21.875 L 26.5625 -21.875 L 26.5625 0 L 19.109375 0 L 19.109375 -2.46875 L 19.015625 -2.46875 C 17.140625 -0.394531 14.753906 0.640625 11.859375 0.640625 C 8.703125 0.640625 6.097656 -0.472656 4.046875 -2.703125 Z M 10.46875 -14.625 C 9.488281 -13.65625 9 -12.414062 9 -10.90625 C 9 -9.40625 9.46875 -8.175781 10.40625 -7.21875 C 11.34375 -6.269531 12.578125 -5.796875 14.109375 -5.796875 C 15.585938 -5.796875 16.800781 -6.28125 17.75 -7.25 C 18.707031 -8.21875 19.1875 -9.441406 19.1875 -10.921875 C 19.1875 -12.421875 18.695312 -13.65625 17.71875 -14.625 C 16.738281 -15.59375 15.535156 -16.078125 14.109375 -16.078125 C 12.660156 -16.078125 11.445312 -15.59375 10.46875 -14.625 Z M 10.46875 -14.625 "/></g></g></g><g clip-path="url(#85b949c16d)"><g fill="#000000" fill-opacity="1"><g transform="translate(238.32167, 38.47148)"><g><path d="M 3.84375 -21.875 L 3.84375 -30.015625 L 11.390625 -30.015625 L 11.390625 -21.875 L 15.984375 -21.875 L 15.984375 -16.125 L 11.390625 -16.125 L 11.390625 -9.171875 C 11.390625 -7.148438 11.957031 -6.140625 13.09375 -6.140625 C 13.375 -6.140625 13.671875 -6.195312 13.984375 -6.3125 C 14.296875 -6.425781 14.539062 -6.539062 14.71875 -6.65625 L 14.96875 -6.828125 L 16.84375 -0.71875 C 15.21875 0.1875 13.367188 0.640625 11.296875 0.640625 C 9.878906 0.640625 8.65625 0.390625 7.625 -0.109375 C 6.601562 -0.609375 5.828125 -1.273438 5.296875 -2.109375 C 4.773438 -2.953125 4.398438 -3.832031 4.171875 -4.75 C 3.953125 -5.675781 3.84375 -6.664062 3.84375 -7.71875 L 3.84375 -16.125 L 0.6875 -16.125 L 0.6875 -21.875 Z M 3.84375 -21.875 "/></g></g></g></g></g></g></g></svg>